<?xml version="1.0" encoding="UTF-8"?>
<!DOCTYPE svg PUBLIC "-//W3C//DTD SVG 1.1//EN" "http://www.w3.org/Graphics/SVG/1.1/DTD/svg11.dtd">
<!-- Creator: CorelDRAW -->
<svg xmlns="http://www.w3.org/2000/svg" xml:space="preserve" width="6.82666in" height="6.82666in" style="shape-rendering:geometricPrecision; text-rendering:geometricPrecision; image-rendering:optimizeQuality; fill-rule:evenodd; clip-rule:evenodd"
viewBox="0 0 6.82666 6.82666"
 xmlns:xlink="http://www.w3.org/1999/xlink">
 <defs>
  <style type="text/css">
   <![CDATA[
    .fil0 {fill:none}
    .fil2 {fill:#424242}
    .fil1 {fill:#424242;fill-rule:nonzero}
   ]]>
  </style>
 </defs>
 <g id="Layer_x0020_1">
  <metadata id="CorelCorpID_0Corel-Layer"/>
  <g id="_411229272">
   <rect id="_411228840" class="fil0" width="6.82666" height="6.82666"/>
   <rect id="_411229176" class="fil0" x="0.853331" y="0.853331" width="5.12" height="5.12"/>
  </g>
  <g id="_411228456">
   <path id="_411228048" class="fil1" d="M1.29542 5.24983l0.445217 0 0 0.222614 -0.445217 0 0 -0.222614zm0 -3.89561l0.445217 0 0 0.222614 -0.445217 0 0 -0.222614zm0 0.556516l0.445217 0 0 0.222614 -0.445217 0 0 -0.222614zm0 0.556516l0.445217 0 0 0.222614 -0.445217 0 0 -0.222614zm0 0.556516l0.445217 0 0 0.222614 -0.445217 0 0 -0.222614zm0 0.556516l0.445217 0 0 0.222614 -0.445217 0 0 -0.222614zm0 0.556516l0.445217 0 0 0.222614 -0.445217 0 0 -0.222614zm0 0.556516l0.445217 0 0 0.222614 -0.445217 0 0 -0.222614z"/>
   <path id="_411228216" class="fil2" d="M1.68569 0.853327l0.426409 0 0 5.12 -0.426409 0c-0.0956496,0 -0.173909,-0.0782559 -0.173909,-0.173913l0 -4.77218c0,-0.0956575 0.0782559,-0.173913 0.173909,-0.173913zm0.573953 0l3.09769 0c0.0956575,0 0.173913,0.0782598 0.173913,0.173913l0 4.77218c0,0.0956535 -0.0782598,0.173913 -0.173913,0.173913l-3.09769 0 0 -5.12zm1.88098 2.8685c0.000562992,0.029622 0.00695669,0.0575197 0.0205748,0.084 0.0295787,0.0575236 0.0892598,0.100071 0.143945,0.131598 0.0790039,0.0455433 0.167843,0.0806969 0.252193,0.11524 0.23087,0.0945669 0.53602,0.214319 0.576425,0.495744l0.00992126 0.0690748 -2.50794 0 0.0099252 -0.0690748c0.0404213,-0.281425 0.345559,-0.401177 0.576437,-0.49574 0.0843543,-0.0345512 0.173201,-0.0697047 0.252201,-0.115248 0.054689,-0.0315276 0.114374,-0.0740748 0.143949,-0.131598 0.0136102,-0.0264803 0.02,-0.054374 0.0205551,-0.0839961 -0.145189,-0.146417 -0.240531,-0.376437 -0.284315,-0.574929 -0.0545236,-0.247173 -0.0563661,-0.570953 0.122795,-0.771079 0.107256,-0.119807 0.254835,-0.166634 0.412429,-0.166634 0.15922,0 0.308445,0.0473071 0.416248,0.169 0.177827,0.200732 0.174862,0.523709 0.119626,0.77039 -0.0443307,0.197976 -0.140063,0.427161 -0.284969,0.573252z"/>
  </g>
 </g>
</svg>
